PathFileType	4	(X/Y/Z)	/Users/itak/Documents/Research/Walk-IL/dataset/trc/00518_00183.trc
DataRate	CameraRate	NumFrames	NumMarkers	Units	OrigDataRate	OrigDataStartFrame	OrigNumFrames
100.000000	100.000000	4	53	mm	100.000000	63	506
Frame#	Time	RPSI			LPSI			L3			STRN			T10			C7			CLAV			RBAK			LBAK			LSHO			LUPA			LAEL			LAOL			LWTS			LWPS			LFRA			LIFD			LHPS			LHTS			RSHO			RUPA			RAEL			RAOL			RWTS			RWPS			RFRA			RIFD			RHTS			RHPS			RBHD			LFHD			RFHD			LBHD			LHIP			RHIP			RASI			LASI			LKNE			LTHI			LANK			LTIP			LTOE			LMT1			LMT5			LHEE			RKNE			RANK			RTIP			RTOE			RMT1			RMT5			RHEE			RTHI			
		X1	Y1	Z1	X2	Y2	Z2	X3	Y3	Z3	X4	Y4	Z4	X5	Y5	Z5	X6	Y6	Z6	X7	Y7	Z7	X8	Y8	Z8	X9	Y9	Z9	X10	Y10	Z10	X11	Y11	Z11	X12	Y12	Z12	X13	Y13	Z13	X14	Y14	Z14	X15	Y15	Z15	X16	Y16	Z16	X17	Y17	Z17	X18	Y18	Z18	X19	Y19	Z19	X20	Y20	Z20	X21	Y21	Z21	X22	Y22	Z22	X23	Y23	Z23	X24	Y24	Z24	X25	Y25	Z25	X26	Y26	Z26	X27	Y27	Z27	X28	Y28	Z28	X29	Y29	Z29	X30	Y30	Z30	X31	Y31	Z31	X32	Y32	Z32	X33	Y33	Z33	X34	Y34	Z34	X35	Y35	Z35	X36	Y36	Z36	X37	Y37	Z37	X38	Y38	Z38	X39	Y39	Z39	X40	Y40	Z40	X41	Y41	Z41	X42	Y42	Z42	X43	Y43	Z43	X44	Y44	Z44	X45	Y45	Z45	X46	Y46	Z46	X47	Y47	Z47	X48	Y48	Z48	X49	Y49	Z49	X50	Y50	Z50	X51	Y51	Z51	X52	Y52	Z52	X53	Y53	Z53	

64	0.63	-1250.645751953125	972.7711181640625	-425.0826110839844	-1216.218383789062	972.6600952148438	-544.0626220703125	-1248.514404296875	1030.810668945312	-491.4220886230469	-1030.64306640625	1202.991088867188	-450.5792541503906	-1265.186645507812	1137.148681640625	-492.1199340820312	-1220.682006835938	1367.54248046875	-482.739013671875	-1067.565307617188	1297.608032226562	-458.2831115722656	-1280.632202148438	1245.134033203125	-405.3618469238281	-1229.745727539062	1311.447021484375	-571.3471069335938	-1127.430541992188	1361.8798828125	-630.3035278320312	-1131.883666992188	1235.181396484375	-690.2186889648438	-1121.810913085938	1024.562866210938	-712.2703247070312	-1199.396240234375	1018.383361816406	-648.8468017578125	-1038.989135742188	836.0386352539062	-665.7587890625	-1116.0810546875	800.350830078125	-709.278076171875	-1105.108276367188	939.2527465820312	-711.8840942382812	-1029.159057617188	683.6924438476562	-664.0875854492188	-1092.068603515625	747.6663818359375	-705.9950561523438	-1030.092407226562	758.58544921875	-686.3098754882812	-1193.103515625	1364.79052734375	-327.4533081054688	-1218.478149414062	1297.41015625	-273.4758911132812	-1214.62646484375	1028.485595703125	-230.1822052001953	-1257.632934570312	1010.173645019531	-277.3199462890625	-1107.558715820312	826.4246826171875	-244.5480346679688	-1189.661743164062	800.4541015625	-212.3091278076172	-1211.653686523438	973.9912109375	-223.9714813232422	-1105.506958007812	667.6231689453125	-238.7278900146484	-1097.907836914062	734.9198608398438	-216.3508758544922	-1167.642822265625	731.802490234375	-207.2774200439453	-1202.0078125	1524.242919921875	-395.1845703125	-1043.320190429688	1590.655517578125	-498.7197875976562	-1078.682495117188	1583.597534179688	-376.2917175292969	-1171.48095703125	1528.70849609375	-551.8612060546875	-1080.588989257812	895.568115234375	-644.9544677734375	-1185.170776367188	870.6221923828125	-280.6134338378906	-1069.346557617188	912.7467651367188	-316.9345397949219	-1008.865661621094	925.2218627929688	-551.5350341796875	-1106.38037109375	474.8994750976562	-612.095458984375	-1076.36328125	630.5579223632812	-626.364501953125	-1208.805053710938	49.40515899658203	-619.2418823242188	-1144.73828125	330.6866455078125	-623.9228515625	-1025.214599609375	38.81362915039062	-524.2239379882812	-1106.735595703125	43.54515075683594	-505.4605407714844	-1099.287841796875	45.18154525756836	-607.0743408203125	-1267.74560546875	42.87989044189453	-567.4937744140625	-1186.24365234375	482.7791137695312	-294.2900695800781	-1226.995971679688	48.83879089355469	-331.2085266113281	-1183.736083984375	341.1558227539062	-310.3444213867188	-1025.404052734375	48.44342803955078	-371.1669616699219	-1091.76953125	53.12490081787109	-409.281005859375	-1113.063842773438	47.16796875	-316.1564025878906	-1278.753540039062	38.93254852294922	-379.9521484375	-1165.72705078125	743.1197509765625	-265.0169982910156	
65	0.64	-1250.295288085938	972.836181640625	-425.2920227050781	-1215.90087890625	972.7271728515625	-544.2713623046875	-1248.14208984375	1030.885498046875	-491.6414184570312	-1030.19482421875	1202.880493164062	-450.8118896484375	-1264.745727539062	1137.244750976562	-492.3218994140625	-1220.086791992188	1367.570678710938	-482.9537658691406	-1067.0302734375	1297.57763671875	-458.5090026855469	-1280.1162109375	1245.191040039062	-405.5880737304688	-1229.200317382812	1311.500854492188	-571.5732421875	-1126.814575195312	1361.876953125	-630.5140991210938	-1131.432250976562	1235.183715820312	-690.4609985351562	-1121.4619140625	1024.54638671875	-712.497802734375	-1199.055419921875	1018.444946289062	-649.1098022460938	-1038.736206054688	836.0234375	-665.9400024414062	-1115.7861328125	800.3208618164062	-709.5211181640625	-1104.794189453125	939.2373046875	-712.1154174804688	-1028.937133789062	683.6102294921875	-664.5187377929688	-1091.90087890625	747.6786499023438	-706.3262939453125	-1029.9990234375	758.5748291015625	-686.6221923828125	-1192.525146484375	1364.791870117188	-327.6585388183594	-1217.944213867188	1297.456665039062	-273.7084655761719	-1214.322265625	1028.517822265625	-230.4175415039062	-1257.300048828125	1010.238037109375	-277.5884094238281	-1107.379638671875	826.3982543945312	-244.6961669921875	-1189.523193359375	800.4802856445312	-212.4967346191406	-1211.414184570312	974.0289306640625	-224.1561584472656	-1105.422241210938	667.5751342773438	-238.8752746582031	-1097.796142578125	734.8780517578125	-216.5203094482422	-1167.588989257812	731.8159790039062	-207.4080657958984	-1201.256958007812	1524.322143554688	-395.3666687011719	-1042.46533203125	1590.539428710938	-498.8436279296875	-1077.8349609375	1583.456176757812	-376.4156494140625	-1170.706909179688	1528.816772460938	-552.0302124023438	-1080.274658203125	895.5634765625	-645.2273559570312	-1185.21435546875	870.890869140625	-280.9849853515625	-1069.0439453125	912.700439453125	-317.1666564941406	-1008.5576171875	925.1804809570312	-551.8033447265625	-1106.250244140625	474.8939819335938	-612.2656860351562	-1076.21484375	630.4950561523438	-626.596923828125	-1208.792358398438	49.39960861206055	-619.2440185546875	-1144.617309570312	330.6694030761719	-624.0638427734375	-1025.215209960938	38.82258224487305	-524.2344360351562	-1106.724853515625	43.56069946289062	-505.4646301269531	-1099.278686523438	45.1768913269043	-607.08984375	-1267.740844726562	42.88799667358398	-567.5084228515625	-1186.066040039062	482.7803039550781	-294.4017028808594	-1227.034423828125	48.79955291748047	-331.1514587402344	-1183.6162109375	341.1628723144531	-310.4050903320312	-1025.41357421875	48.63673782348633	-371.0657958984375	-1091.793701171875	53.26387023925781	-409.2010192871094	-1113.112670898438	47.18329238891602	-316.0886840820312	-1278.783081054688	38.89168167114258	-379.9182434082031	-1165.613159179688	743.2144165039062	-265.2239379882812	
66	0.65	-1249.922729492188	972.9107055664062	-425.5194091796875	-1215.563598632812	972.7970581054688	-544.5001220703125	-1247.751220703125	1030.962768554688	-491.8622741699219	-1029.718872070312	1202.7724609375	-451.0518798828125	-1264.288818359375	1137.342529296875	-492.5392761230469	-1219.465087890625	1367.603515625	-483.1716613769531	-1066.462646484375	1297.5302734375	-458.7396850585938	-1279.569580078125	1245.255493164062	-405.8221435546875	-1228.636840820312	1311.55419921875	-571.8076171875	-1126.182006835938	1361.868774414062	-630.7372436523438	-1130.961791992188	1235.1826171875	-690.7142944335938	-1121.107177734375	1024.533569335938	-712.7352294921875	-1198.701538085938	1018.501708984375	-649.386474609375	-1038.437744140625	836.0131225585938	-666.1426391601562	-1115.484741210938	800.2803344726562	-709.782958984375	-1104.479370117188	939.228759765625	-712.360595703125	-1028.719360351562	683.5572509765625	-664.9669799804688	-1091.718872070312	747.7005004882812	-706.6605834960938	-1029.867553710938	758.5750122070312	-686.9581909179688	-1191.91943359375	1364.790161132812	-327.8732604980469	-1217.380737304688	1297.496459960938	-273.9510498046875	-1213.985107421875	1028.549072265625	-230.6629028320312	-1256.944458007812	1010.302856445312	-277.8513793945312	-1107.179931640625	826.3733520507812	-244.8522338867188	-1189.359985351562	800.505859375	-212.6924896240234	-1211.143798828125	974.0654296875	-224.3533325195312	-1105.31884765625	667.5250244140625	-239.0248870849609	-1097.656005859375	734.8302001953125	-216.7082824707031	-1167.505615234375	731.8334350585938	-207.5541229248047	-1200.482666015625	1524.3935546875	-395.5545349121094	-1041.594360351562	1590.429321289062	-498.9878540039062	-1076.961303710938	1583.323486328125	-376.558349609375	-1169.919311523438	1528.9345703125	-552.2153930664062	-1079.950927734375	895.5426025390625	-645.513671875	-1185.310302734375	871.21875	-281.416259765625	-1068.72900390625	912.6488647460938	-317.4058837890625	-1008.24365234375	925.1339721679688	-552.087646484375	-1106.100830078125	474.8809204101562	-612.4296264648438	-1076.05078125	630.4269409179688	-626.8345947265625	-1208.781127929688	49.3958854675293	-619.246337890625	-1144.488891601562	330.6485290527344	-624.2034912109375	-1025.216430664062	38.83168411254883	-524.242919921875	-1106.719604492188	43.57208633422852	-505.4700622558594	-1099.270263671875	45.17211151123047	-607.1030883789062	-1267.73681640625	42.89723968505859	-567.5223999023438	-1185.886596679688	482.78466796875	-294.5089416503906	-1227.076416015625	48.75691223144531	-331.0880737304688	-1183.488891601562	341.17236328125	-310.4698791503906	-1025.429077148438	48.85890579223633	-370.9472961425781	-1091.821655273438	53.41546249389648	-409.113037109375	-1113.171508789062	47.20295333862305	-316.011474609375	-1278.815063476562	38.85052108764648	-379.8790283203125	-1165.53466796875	743.314208984375	-265.4307250976562	
67	0.66	-1249.529663085938	972.995361328125	-425.7651977539062	-1215.206420898438	972.8699340820312	-544.7492065429688	-1247.342651367188	1031.042724609375	-492.085205078125	-1029.210327148438	1202.668212890625	-451.3010864257812	-1263.815795898438	1137.440551757812	-492.7738647460938	-1218.81591796875	1367.64306640625	-483.394775390625	-1065.861938476562	1297.468872070312	-458.9773254394531	-1278.992797851562	1245.329467773438	-406.0640869140625	-1228.05224609375	1311.608520507812	-572.05029296875	-1125.53369140625	1361.856201171875	-630.9739379882812	-1130.468017578125	1235.180297851562	-690.9779663085938	-1120.745361328125	1024.5244140625	-712.983154296875	-1198.334106445312	1018.554077148438	-649.6758422851562	-1038.106079101562	836.0037231445312	-666.368896484375	-1115.182983398438	800.2344970703125	-710.06640625	-1104.1640625	939.2276000976562	-712.6221313476562	-1028.50732421875	683.5341796875	-665.425048828125	-1091.516845703125	747.72802734375	-706.9952392578125	-1029.692626953125	758.58349609375	-687.3099975585938	-1191.28515625	1364.78662109375	-328.099853515625	-1216.7880859375	1297.529418945312	-274.2024841308594	-1213.614379882812	1028.581420898438	-230.9185638427734	-1256.568359375	1010.369201660156	-278.1047668457031	-1106.959838867188	826.3505859375	-245.0154113769531	-1189.169677734375	800.53076171875	-212.8990020751953	-1210.839233398438	974.101806640625	-224.5656127929688	-1105.196655273438	667.4742431640625	-239.179443359375	-1097.486206054688	734.7778930664062	-216.9143371582031	-1167.386840820312	731.8543090820312	-207.7230682373047	-1199.682373046875	1524.456298828125	-395.7488403320312	-1040.705322265625	1590.326904296875	-499.15185546875	-1076.063354492188	1583.20068359375	-376.7170104980469	-1169.11181640625	1529.057739257812	-552.4153442382812	-1079.618286132812	895.506591796875	-645.8125610351562	-1185.388427734375	871.5487060546875	-281.8647766113281	-1068.402587890625	912.592529296875	-317.654052734375	-1007.924377441406	925.0796508789062	-552.386474609375	-1105.934814453125	474.8572692871094	-612.5868530273438	-1075.872924804688	630.3531494140625	-627.0753173828125	-1208.77197265625	49.39469909667969	-619.2490234375	-1144.355834960938	330.6239929199219	-624.3402099609375	-1025.218383789062	38.84059524536133	-524.2491455078125	-1106.718383789062	43.57996368408203	-505.4761657714844	-1099.262451171875	45.16750717163086	-607.1136474609375	-1267.7333984375	42.9078483581543	-567.5354614257812	-1185.705444335938	482.7936706542969	-294.6112365722656	-1227.122802734375	48.71141052246094	-331.0180053710938	-1183.352905273438	341.185302734375	-310.5371398925781	-1025.453735351562	49.11495590209961	-370.8060913085938	-1091.85400390625	53.58082580566406	-409.0142211914062	-1113.243041992188	47.22891998291016	-315.9221801757812	-1278.849853515625	38.808837890625	-379.8340148925781	-1165.4638671875	743.410400390625	-265.6411437988281	
